<svg xmlns="http://www.w3.org/2000/svg" viewBox="0 0 360 360" fill="none" shape-rendering="auto"><metadata xmlns:rdf="http://www.w3.org/1999/02/22-rdf-syntax-ns#" xmlns:xsi="http://www.w3.org/2001/XMLSchema-instance" xmlns:dc="http://purl.org/dc/elements/1.1/" xmlns:dcterms="http://purl.org/dc/terms/"><rdf:RDF><rdf:Description><dc:title>Avatar Illustration System</dc:title><dc:creator>Micah Lanier</dc:creator><dc:source xsi:type="dcterms:URI">https://www.figma.com/community/file/829741575478342595</dc:source><dcterms:license xsi:type="dcterms:URI">https://creativecommons.org/licenses/by/4.0/</dcterms:license><dc:rights>Remix of „Avatar Illustration System” (https://www.figma.com/community/file/829741575478342595) by „Micah Lanier”, licensed under „CC BY 4.0” (https://creativecommons.org/licenses/by/4.0/)</dc:rights></rdf:Description></rdf:RDF></metadata><mask id="viewboxMask"><rect width="360" height="360" rx="0" ry="0" x="0" y="0" fill="#fff" /></mask><g mask="url(#viewboxMask)"><rect fill="#0f172a" width="360" height="360" x="0" y="0" /><g transform="translate(80 23)"><path d="M154 319.5c-14.4-20-25.67-58.67-27-78L58.5 212 30 319.5h124Z" fill="#77311d" stroke="#000" stroke-width="4"/><path d="M130.37 263.69c-2.1.2-4.22.31-6.37.31-30.78 0-56.05-21.57-58.76-49.1L127 241.5c.38 5.48 1.55 13.32 3.37 22.19Z" fill="#000" style="mix-blend-mode:multiply"/><path d="M181.94 151.37v.01l.1.4.14.65A75.72 75.72 0 0 1 34.93 187.7l-.2-.74L18 117.13l-.06-.29A75.72 75.72 0 0 1 165.2 81.55l.05.21.02.08.05.2.05.2v.01l16.4 68.44.08.34.08.34Z" fill="#77311d" stroke="#000" stroke-width="4"/><g transform="translate(34 102.3)"></g></g><g transform="translate(170 183)"><path d="M36.37 56.66c12.1-2.2 18.75-15.38 16.42-28.23C50.47 15.6 39.63 5.57 27.52 7.76 15.4 9.95 8.77 23.13 11.09 35.98c2.33 12.85 13.17 22.87 25.28 20.68Z" fill="#000000"/><path d="M17.14 42.66c2.78-5.21 8.14-9.25 14.8-10.45 6.66-1.2 13.1.7 17.53 4.6-1.09 8.3-6.37 15-13.74 16.33-7.37 1.33-14.67-3.1-18.6-10.47Z" fill="#FC909F"/></g><g transform="translate(110 102)"><path d="M27 26.5c6.17 2.5 21.1 3 31.5-15M94 4c5.17 5.33 18.1 12.8 28.5 0" stroke="#000000" stroke-width="4" stroke-linecap="round"/></g><g transform="translate(49 11)"><path d="M123.79 17.49H123.94a96.78 96.78 0 0 1 62.07 24.36c14.06 12.4 22.45 26.87 25.19 36.73-4.06 2.32-11.01 4.31-19.88 5.95-9.68 1.78-21.3 3.08-33.15 4.01-23.7 1.86-48.2 2.2-59.63 1.96l-6.07-.13 4.8 3.71c2.5 1.93 5.83 3.28 9.34 4.22 3.55.95 7.42 1.54 11.14 1.87 3.82.34 7.55.42 10.64.34-10.59 8.16-24.06 14.44-37.35 19.09a225.88 225.88 0 0 1-39.83 9.92l-2.15.32.5 2.11c3.34 14.43 9.5 39.65 13.62 56.57 1.83 7.5 3.26 13.38 3.87 15.94 1.09 4.56 4.5 11.05 8.4 17.03 3.6 5.52 7.78 10.89 11.32 14.2l-7.84 31.81H49.37c8.34-12.71 10.1-27.4 8.4-42.98-1.84-16.87-7.76-35-14-53.17l-1.85-5.36c-5.69-16.46-11.36-32.88-14.43-48.6-3.4-17.44-3.56-33.75 2.83-48.09 10.34-23.21 28.66-36.7 47-44.12 18.37-7.45 36.61-8.76 46.46-7.71Z" fill="#ffffff" stroke="#000" stroke-width="4"/></g><g transform="translate(142 119)"><path d="M5.29 34.07c.11.82 1.14 1 1.72.41 2.46-2.52 6.25-4.36 10.65-4.89 2.6-.3 5.1-.12 7.32.48.75.2 1.5-.44 1.23-1.17A10.84 10.84 0 0 0 5.3 34.07ZM69.38 24.07c.12.82 1.15 1 1.73.41 2.44-2.48 6.19-4.3 10.54-4.83 2.56-.3 5.03-.12 7.23.47.75.2 1.5-.44 1.23-1.17a10.74 10.74 0 0 0-20.73 5.12Z" fill="#000000"/><g transform="translate(-40 -8)"></g></g><g transform="rotate(-8 1149.44 -1186.92)"><path d="M12.3 12.34c5.45-1.24 14.38.62 12.42 10.54-1.74 8.82-11.1 9.3-13.72 6.82" stroke="#000" stroke-width="4"/></g><g transform="translate(84 154)"><path d="M30.5 6.18A23.78 23.78 0 0 0 23.08 5c-10.5 0-19 6.5-18 18.5 1.04 12.5 8.5 17 19 17A19.6 19.6 0 0 0 31 39.23" stroke="#000" stroke-width="8"/><path d="M31.5 39.04a19.38 19.38 0 0 1-7.42 1.46c-10.5 0-17.96-4.5-19-17-1-12 7.5-18.5 18-18.5 3.14 0 6.19.6 8.92 1.73l-.5 32.3Z" fill="#77311d"/><path d="M27.5 13.5c-4-1.83-12.8-2.8-16 8" stroke="#000" stroke-width="4"/><path d="M17 14c2.17 1.83 6.3 7.5 5.5 15.5" stroke="#000" stroke-width="4"/><g transform="translate(3 35)"></g></g><g transform="translate(53 272)"><path d="M260.37 90.86H-12.54l.1-.2C-7.89 81.38.5 64.31 11.4 49.03c6.2-8.67 13.13-16.65 20.54-22.27 7.41-5.61 15.12-8.73 22.95-8.04 15.06 1.31 28.46 9.56 41.93 17.83l3.83 2.35c14.48 8.82 29.35 17.02 45.72 13.43 5.53-1.2 9.26-3.8 11.6-7.16 2.32-3.3 3.15-7.15 3.3-10.66.14-3.52-.4-6.85-.96-9.26a39.89 39.89 0 0 0-.75-2.78c3.63-3.64 7.47-5.77 11.43-6.73 4.3-1.03 8.89-.73 13.72.7 9.73 2.87 20.14 10.25 30.3 19.73 18.61 17.37 35.69 41.14 45.36 54.68Z" fill="#f4d150" stroke="#000" stroke-width="4.27"/></g></g></svg>